<svg id="Layer_1" data-name="Layer 1" xmlns="http://www.w3.org/2000/svg" viewBox="0 0 32 32"><defs><style>.cls-1{fill:#76777a;}</style></defs><title>constancia</title><path class="cls-1" d="M27,20V7.83A6.88,6.88,0,0,0,20.1.94H7.78A2.78,2.78,0,0,0,5,3.72v9a.24.24,0,0,0,.24.24l1-.37c.14-.05.23-.1.23-.23V3.72A1.34,1.34,0,0,1,7.78,2.39H20.1a5.45,5.45,0,0,1,5.44,5.44V20.69"/><path class="cls-1" d="M5,9V24.17a6.89,6.89,0,0,0,6.89,6.89H24.22A2.77,2.77,0,0,0,27,28.28V21.83a.24.24,0,0,0-.24-.24l-1,.37c-.14.05-.24.1-.24.23v6.09a1.33,1.33,0,0,1-1.33,1.33H11.9a5.45,5.45,0,0,1-5.44-5.44V12"/><path class="cls-1" d="M6.46,20V15a.17.17,0,0,0-.22-.16l-1,.39a.32.32,0,0,0-.21.3V23"/><path class="cls-1" d="M21.26,11.67H10.1a.53.53,0,0,1-.53-.53.53.53,0,0,1,.53-.53H21.26a.53.53,0,0,1,.53.53.53.53,0,0,1-.53.53"/><path class="cls-1" d="M21.26,15.39H10.1a.54.54,0,0,1,0-1.07H21.26a.54.54,0,0,1,0,1.07"/><path class="cls-1" d="M21.26,18.69H10.1a.53.53,0,0,1,0-1.06H21.26a.53.53,0,0,1,0,1.06"/><path class="cls-1" d="M18.6,8H10.1a.53.53,0,1,1,0-1.06h8.5A.53.53,0,0,1,18.6,8"/><path class="cls-1" d="M23.38,28h-8.5a.54.54,0,0,1,0-1.07h8.5a.54.54,0,0,1,0,1.07"/></svg>