<svg id="Layer_1" data-name="Layer 1" xmlns="http://www.w3.org/2000/svg" viewBox="0 0 32 32"><defs><style>.cls-1{fill:#76777a;}</style></defs><title>estado-cuenta</title><path class="cls-1" d="M29.32,25.71H2.68A2.67,2.67,0,0,1,0,23.06V8.94A2.67,2.67,0,0,1,2.68,6.29H29.32A2.67,2.67,0,0,1,32,8.94V23.06A2.67,2.67,0,0,1,29.32,25.71ZM2.68,7.35A1.6,1.6,0,0,0,1.07,8.94V23.06a1.6,1.6,0,0,0,1.61,1.59H29.32a1.6,1.6,0,0,0,1.61-1.59V8.94a1.6,1.6,0,0,0-1.61-1.59Z"/><path class="cls-1" d="M28.11,16.37H3.93A1.36,1.36,0,0,1,2.7,14.91V11.14A1.36,1.36,0,0,1,3.93,9.68H28.11a1.36,1.36,0,0,1,1.24,1.46v3.77A1.36,1.36,0,0,1,28.11,16.37ZM3.93,10.27a.82.82,0,0,0-.74.87v3.77a.83.83,0,0,0,.74.88H28.11a.83.83,0,0,0,.75-.88V11.14a.82.82,0,0,0-.75-.87Z"/><path class="cls-1" d="M12.84,22.92H4A1.29,1.29,0,0,1,2.7,21.6V18.19A1.29,1.29,0,0,1,4,16.87h8.89a1.29,1.29,0,0,1,1.25,1.32V21.6A1.29,1.29,0,0,1,12.84,22.92ZM4,17.4a.78.78,0,0,0-.75.79V21.6a.77.77,0,0,0,.75.79h8.89a.76.76,0,0,0,.75-.79V18.19a.77.77,0,0,0-.75-.79Z"/><path class="cls-1" d="M28.12,22.92h-12a1.28,1.28,0,0,1-1.23-1.32V18.19a1.28,1.28,0,0,1,1.23-1.32h12a1.28,1.28,0,0,1,1.23,1.32V21.6A1.28,1.28,0,0,1,28.12,22.92Zm-12-5.52a.77.77,0,0,0-.74.79V21.6a.76.76,0,0,0,.74.79h12a.76.76,0,0,0,.74-.79V18.19a.77.77,0,0,0-.74-.79Z"/><path class="cls-1" d="M11.32,19H5.46a.12.12,0,0,1-.12-.12.11.11,0,0,1,.12-.11h5.86a.11.11,0,0,1,.11.11A.11.11,0,0,1,11.32,19Z"/><path class="cls-1" d="M11.32,20H5.46a.11.11,0,0,1-.12-.11.12.12,0,0,1,.12-.12h5.86a.11.11,0,0,1,.11.12A.11.11,0,0,1,11.32,20Z"/><path class="cls-1" d="M11.32,21H5.46a.11.11,0,1,1,0-.22h5.86a.11.11,0,0,1,0,.22Z"/><path class="cls-1" d="M26.85,19h-9.3a.11.11,0,0,1-.11-.12.11.11,0,0,1,.11-.11h9.3a.11.11,0,0,1,.11.11A.11.11,0,0,1,26.85,19Z"/><path class="cls-1" d="M26.85,20h-9.3a.11.11,0,0,1-.11-.11.11.11,0,0,1,.11-.12h9.3a.11.11,0,0,1,.11.12A.11.11,0,0,1,26.85,20Z"/><path class="cls-1" d="M26.85,21h-9.3a.11.11,0,1,1,0-.22h9.3a.11.11,0,0,1,0,.22Z"/><path class="cls-1" d="M20.38,11.75H18.32a.11.11,0,0,1-.11-.11.11.11,0,0,1,.11-.12h2.06a.11.11,0,0,1,.11.12A.11.11,0,0,1,20.38,11.75Z"/><path class="cls-1" d="M20.38,13.06H18.32a.11.11,0,0,1-.11-.12.11.11,0,0,1,.11-.11h2.06a.11.11,0,0,1,.11.11A.11.11,0,0,1,20.38,13.06Z"/><path class="cls-1" d="M20.38,14.35H18.32a.11.11,0,0,1-.11-.11.11.11,0,0,1,.11-.12h2.06a.11.11,0,0,1,.11.12A.11.11,0,0,1,20.38,14.35Z"/><path class="cls-1" d="M26.85,11.75H21a.11.11,0,0,1-.12-.11.12.12,0,0,1,.12-.12h5.86a.11.11,0,0,1,.11.12A.11.11,0,0,1,26.85,11.75Z"/><path class="cls-1" d="M26.85,13.06H21a.12.12,0,0,1-.12-.12.11.11,0,0,1,.12-.11h5.86a.11.11,0,0,1,.11.11A.11.11,0,0,1,26.85,13.06Z"/><path class="cls-1" d="M26.85,14.35H21a.11.11,0,0,1-.12-.11.12.12,0,0,1,.12-.12h5.86a.11.11,0,0,1,.11.12A.11.11,0,0,1,26.85,14.35Z"/><path class="cls-1" d="M7.51,11.75h-2a.11.11,0,0,1-.12-.11.12.12,0,0,1,.12-.12H7.51a.12.12,0,0,1,.12.12A.11.11,0,0,1,7.51,11.75Z"/><path class="cls-1" d="M7.51,13.06h-2a.12.12,0,0,1-.12-.12.11.11,0,0,1,.12-.11H7.51a.11.11,0,0,1,.12.11A.12.12,0,0,1,7.51,13.06Z"/><path class="cls-1" d="M7.51,14.35h-2a.11.11,0,0,1-.12-.11.12.12,0,0,1,.12-.12H7.51a.12.12,0,0,1,.12.12A.11.11,0,0,1,7.51,14.35Z"/><path class="cls-1" d="M14,11.75H8.12A.11.11,0,0,1,8,11.64a.11.11,0,0,1,.11-.12H14a.11.11,0,0,1,.11.12A.11.11,0,0,1,14,11.75Z"/><path class="cls-1" d="M14,13.06H8.12A.11.11,0,0,1,8,12.94a.11.11,0,0,1,.11-.11H14a.11.11,0,0,1,.11.11A.11.11,0,0,1,14,13.06Z"/><path class="cls-1" d="M14,14.35H8.12A.11.11,0,0,1,8,14.24a.11.11,0,0,1,.11-.12H14a.11.11,0,0,1,.11.12A.11.11,0,0,1,14,14.35Z"/></svg>