<svg id="Layer_1" data-name="Layer 1" xmlns="http://www.w3.org/2000/svg" viewBox="0 0 32 32"><defs><style>.cls-1{fill:none;stroke:#76777a;stroke-miterlimit:10;}.cls-2{font-size:12.65px;fill:#76777a;font-family:NeoSans, Neo Sans;letter-spacing:-0.01em;}</style></defs><title>expediente</title><path class="cls-1" d="M.55,6S.14,3.78,2.28,4H24.05s1.43-.14,1.31,1V7.11H22.09s-1.44-.09-1.55.83L20.3,9.07s.06.66-.89.48H7.57s-2.08-.3-2.32,1.6L2.87,26.68s0,1.19-.89,1.25-.89-1.73-.89-1.73Z"/><path class="cls-1" d="M26.61,18.67,24.88,26.8s-.06,1.55-1.78,1.13L2.7,28a1.24,1.24,0,0,0,.37-.76C3.07,26.85,5.64,11,5.64,11S5.7,9.77,7.35,9.93H19.6a1,1,0,0,0,1-.73l.16-.85s-.1-1,1.26-1l6,0s.95-.24.72.89l-1.37,6.43"/><text class="cls-2" transform="translate(8.7 21.26)">Exp.</text></svg>